HIERARCHY
ROOT SpineBase
{
  OFFSET 0.000000 0.000000 0.000000
  CHANNELS 6 Xposition Yposition Zposition Zrotation Xrotation Yrotation
  JOINT SpineMid
  {
    OFFSET -0.000000 32.287280 0.000000
    CHANNELS 3 Zrotation Xrotation Yrotation
    JOINT SpineShoulder
    {
      OFFSET -0.083548 23.894672 -0.722559
      CHANNELS 3 Zrotation Xrotation Yrotation
      JOINT Neck
      {
        OFFSET -0.082012 7.925431 -0.608785
        CHANNELS 3 Zrotation Xrotation Yrotation
        JOINT Head
        {
          OFFSET -1.548708 11.933062 3.495763
          CHANNELS 3 Zrotation Xrotation Yrotation
          End Site
          {
            OFFSET 0 0 0
          }
        }
      }
      JOINT ShoulderLeft
      {
        OFFSET -11.480644 -6.479246 -10.989459
        CHANNELS 3 Zrotation Xrotation Yrotation
        JOINT ElbowLeft
        {
          OFFSET -5.113769 -26.070495 1.419365
          CHANNELS 3 Zrotation Xrotation Yrotation
          JOINT WristLeft
          {
            OFFSET -5.840598 -24.686923 6.388831
            CHANNELS 3 Zrotation Xrotation Yrotation
            JOINT HandLeft
            {
              OFFSET -0.216032 -5.381734 2.765060
              CHANNELS 3 Zrotation Xrotation Yrotation
              JOINT HandTipLeft
              {
                OFFSET -0.114695 -6.743144 0.536603
                CHANNELS 3 Zrotation Xrotation Yrotation
                End Site
                {
                  OFFSET 0 0 0
                }
              }
              JOINT ThumbLeft
              {
                OFFSET 3.005985 0.712398 -0.498612
                CHANNELS 3 Zrotation Xrotation Yrotation
                End Site
                {
                  OFFSET 0 0 0
                }
              }
            }
          }
        }
      }
      JOINT ShoulderRight
      {
        OFFSET 13.462183 -3.954035 -0.399567
        CHANNELS 3 Zrotation Xrotation Yrotation
        JOINT ElbowRight
        {
          OFFSET 10.663032 -20.530481 7.282041
          CHANNELS 3 Zrotation Xrotation Yrotation
          JOINT WristRight
          {
            OFFSET -24.744107 -6.646134 -9.827169
            CHANNELS 3 Zrotation Xrotation Yrotation
            JOINT HandRight
            {
              OFFSET -6.272456 -5.499352 -5.692772
              CHANNELS 3 Zrotation Xrotation Yrotation
              JOINT HandTipRight
              {
                OFFSET -5.684586 -6.469924 3.090895
                CHANNELS 3 Zrotation Xrotation Yrotation
                End Site
                {
                  OFFSET 0 0 0
                }
              }
              JOINT ThumbRight
              {
                OFFSET -2.717466 7.182580 -1.557934
                CHANNELS 3 Zrotation Xrotation Yrotation
                End Site
                {
                  OFFSET 0 0 0
                }
              }
            }
          }
        }
      }
    }
  }
  JOINT HipLeft
  {
    OFFSET -6.634765 2.047696 -5.471476
    CHANNELS 3 Zrotation Xrotation Yrotation
    JOINT KneeLeft
    {
      OFFSET 2.374079 -37.162020 -3.033530
      CHANNELS 3 Zrotation Xrotation Yrotation
      JOINT AnkleLeft
      {
        OFFSET 0.196332 -35.044915 -4.575801
        CHANNELS 3 Zrotation Xrotation Yrotation
        JOINT FootLeft
        {
          OFFSET 3.845417 -6.601438 -1.229853
          CHANNELS 3 Zrotation Xrotation Yrotation
          End Site
          {
            OFFSET 0 0 0
          }
        }
      }
    }
  }
  JOINT HipRight
  {
    OFFSET 5.654304 0.765998 -0.671279
    CHANNELS 3 Zrotation Xrotation Yrotation
    JOINT KneeRight
    {
      OFFSET 11.197116 -39.856068 7.037960
      CHANNELS 3 Zrotation Xrotation Yrotation
      JOINT AnkleRight
      {
        OFFSET 3.480764 -32.395841 2.944612
        CHANNELS 3 Zrotation Xrotation Yrotation
        JOINT FootRight
        {
          OFFSET -6.842014 6.123191 -3.083292
          CHANNELS 3 Zrotation Xrotation Yrotation
          End Site
          {
            OFFSET 0 0 0
          }
        }
      }
    }
  }
}
MOTION
Frames: 9
Frame Time: 0.033333
35.540297 76.760678 228.360332 0.000000 0.000000 -21.335966 -0.000000 0.000000 21.335966 -0.000000 0.000000 0.000000 -0.000000 0.000000 0.000000 0.000000 0.000000 0.000000 -0.000000 0.000000 0.000000 -0.000000 0.000000 0.000000 -0.000000 0.000000 0.000000 -0.000000 0.000000 0.000000 0.000000 0.000000 0.000000 0.000000 0.000000 0.000000 -0.000000 0.000000 0.000000 -0.000000 0.000000 0.000000 -0.000000 0.000000 0.000000 -0.000000 0.000000 0.000000 0.000000 0.000000 0.000000 0.000000 0.000000 0.000000 -0.000000 0.000000 21.335966 -0.000000 0.000000 0.000000 -0.000000 0.000000 0.000000 0.000000 0.000000 0.000000 -0.000000 0.000000 21.335966 -0.000000 0.000000 0.000000 -0.000000 0.000000 0.000000 0.000000 0.000000 0.000000
35.561444 76.718048 228.417954 0.034356 -0.109311 -21.133560 -0.071457 0.089572 21.133649 -0.000000 0.000000 0.000000 -0.000000 0.000000 0.000000 0.000000 0.000000 0.000000 -0.000000 0.000000 0.000000 0.753267 1.245305 -0.108350 4.894756 9.309778 2.293985 -2.554363 -6.234247 -2.440555 0.000000 0.000000 0.000000 0.000000 0.000000 0.000000 -0.000000 0.000000 0.000000 2.019048 -0.761259 -0.149310 -0.962519 1.792119 -2.127667 -2.869169 -0.200875 0.568950 0.000000 0.000000 0.000000 0.000000 0.000000 0.000000 -0.071457 0.089572 21.133649 -0.000000 0.000000 0.000000 1.865285 12.007164 6.287011 0.000000 0.000000 0.000000 -0.071457 0.089572 21.133649 -0.000000 0.000000 0.000000 -4.188080 8.466073 8.313516 0.000000 0.000000 0.000000
35.582250 76.681253 228.471470 0.070975 -0.202524 -20.947453 -0.138689 0.163764 20.947776 -0.000000 0.000000 0.000000 -0.000000 0.000000 0.000000 0.000000 0.000000 0.000000 -0.000000 0.000000 0.000000 1.252217 1.989177 -0.169521 7.385471 14.397864 3.241228 -3.737265 -9.505280 -3.753351 0.000000 0.000000 0.000000 0.000000 0.000000 0.000000 -0.000000 0.000000 0.000000 3.608136 -1.389202 -0.139610 -1.742293 3.209632 -3.878944 -4.758002 -0.596910 1.213664 0.000000 0.000000 0.000000 0.000000 0.000000 0.000000 -0.138689 0.163764 20.947776 -0.000000 0.000000 0.000000 2.413228 22.720622 11.843585 0.000000 0.000000 0.000000 -0.138689 0.163764 20.947776 -0.000000 0.000000 0.000000 -7.183248 12.487815 12.721608 0.000000 0.000000 0.000000
35.602717 76.650293 228.520882 0.109865 -0.279684 -20.777829 -0.201937 0.222519 20.778489 -0.000000 0.000000 0.000000 -0.000000 0.000000 0.000000 0.000000 0.000000 0.000000 -0.000000 0.000000 0.000000 1.501512 2.244150 -0.173225 8.613393 16.937365 3.595099 -4.130137 -11.111911 -4.330159 0.000000 0.000000 0.000000 0.000000 0.000000 0.000000 -0.891826 0.119132 -0.254653 5.667510 -1.970083 0.282036 -2.370688 4.258119 -5.199144 -5.698750 -1.060834 1.880501 0.000000 0.000000 0.000000 0.000000 0.000000 0.000000 -0.201937 0.222519 20.778489 -0.000000 0.000000 0.000000 1.989231 31.400191 16.665926 0.000000 0.000000 0.000000 -0.201937 0.222519 20.778489 -0.000000 0.000000 0.000000 -9.160185 14.199511 14.628150 0.000000 0.000000 0.000000
35.622844 76.625167 228.566189 0.151034 -0.340831 -20.624849 -0.261413 0.265783 20.625904 -0.000000 0.000000 0.000000 -0.000000 0.000000 0.000000 0.000000 0.000000 0.000000 -0.000000 0.000000 0.000000 1.503788 2.015186 -0.114951 9.037501 17.719563 3.595551 -4.007024 -11.640074 -4.390563 0.000000 0.000000 0.000000 0.000000 0.000000 0.000000 -1.306669 0.330195 -0.290242 6.816009 -2.514575 0.637702 -2.873009 4.945043 -6.050735 -5.720772 -1.506987 2.537267 0.000000 0.000000 0.000000 0.000000 0.000000 0.000000 -0.261413 0.265783 20.625904 -0.000000 0.000000 0.000000 0.976792 38.065558 20.818463 0.000000 0.000000 0.000000 -0.261413 0.265783 20.625904 -0.000000 0.000000 0.000000 -10.385901 14.375881 14.554117 0.000000 0.000000 0.000000
35.642632 76.605875 228.607391 0.194492 -0.385993 -20.488647 -0.317299 0.293496 20.490115 -0.000000 0.000000 0.000000 -0.000000 0.000000 0.000000 0.000000 0.000000 0.000000 -0.000000 0.000000 0.000000 1.259571 1.298968 0.004396 8.734330 16.879324 3.300360 -3.400139 -11.201422 -3.993084 0.000000 0.000000 0.000000 0.000000 0.000000 0.000000 -1.774935 0.626503 -0.297480 7.588273 -3.005361 1.112129 -3.266637 5.274894 -6.412007 -4.844262 -1.891635 3.162643 0.000000 0.000000 0.000000 0.000000 0.000000 0.000000 -0.317299 0.293496 20.490115 -0.000000 0.000000 0.000000 -0.322534 43.068563 24.374234 0.000000 0.000000 0.000000 -0.317299 0.293496 20.490115 -0.000000 0.000000 0.000000 -11.039133 13.068699 12.367441 0.000000 0.000000 0.000000
35.660907 76.585138 228.653613 0.237000 -0.422078 -20.384304 -0.369180 0.313091 20.386186 -0.000000 0.000000 0.000000 -0.000000 0.000000 0.000000 0.000000 0.000000 0.000000 -0.000000 0.000000 0.000000 1.933955 1.683112 0.074483 6.724327 13.290839 3.058823 -0.645649 -9.052676 -2.874824 0.000000 0.000000 0.000000 0.000000 0.000000 0.000000 1.205563 0.413631 0.635436 1.895993 -1.809290 -0.008614 -0.616414 3.259514 -5.372542 -1.900261 -0.392909 3.502917 0.000000 0.000000 0.000000 0.000000 0.000000 0.000000 -0.369180 0.313091 20.386186 -0.000000 0.000000 0.000000 -2.729446 49.776029 29.835056 0.000000 0.000000 0.000000 -0.369180 0.313091 20.386186 -0.000000 0.000000 0.000000 -11.413018 9.733307 7.218526 0.000000 0.000000 0.000000
35.654550 76.565936 228.685944 0.243019 -0.431339 -20.274172 -0.377433 0.320401 20.276142 -0.000000 0.000000 0.000000 -0.000000 0.000000 0.000000 0.000000 0.000000 0.000000 -0.000000 0.000000 0.000000 1.405178 0.751614 0.177444 2.759983 4.828319 1.612370 1.136249 -3.359211 -1.351085 0.000000 0.000000 0.000000 0.000000 0.000000 0.000000 -1.030062 2.387414 0.907163 4.108951 -3.849869 -0.015373 -1.975435 2.106311 -2.630620 2.282073 0.928224 2.253757 0.000000 0.000000 0.000000 0.000000 0.000000 0.000000 -0.377433 0.320401 20.276142 -0.000000 0.000000 0.000000 -2.755099 48.399211 29.042760 0.000000 0.000000 0.000000 -0.377433 0.320401 20.276142 0.256045 0.803602 0.107865 -9.912874 -5.733819 -11.876759 0.000000 0.000000 0.000000
35.673865 76.572443 228.707534 0.295269 -0.420573 -20.240916 -0.422545 0.292440 20.243078 -0.000000 0.000000 0.000000 -0.000000 0.000000 0.000000 0.000000 0.000000 0.000000 -0.000000 0.000000 0.000000 -1.288658 -3.919634 0.543819 0.225467 1.963173 -1.049631 2.210630 -2.665937 0.628328 0.000000 0.000000 0.000000 0.000000 0.000000 0.000000 -12.224084 5.667206 -0.862249 19.316727 -7.986566 3.996849 -5.339300 3.690757 -3.247537 2.656308 -1.882927 5.421543 0.000000 0.000000 0.000000 0.000000 0.000000 0.000000 -0.422545 0.292440 20.243078 0.180960 0.853756 -0.020173 0.277636 51.419164 29.042964 0.000000 0.000000 0.000000 -0.422545 0.292440 20.243078 0.009060 0.861264 0.093358 -15.497741 -11.577821 -23.815664 0.000000 0.000000 0.000000
